<?xml version="1.0" encoding="UTF-8" standalone="no"?>
<!-- Created with Inkscape (http://www.inkscape.org/) -->

<svg
   width="240.98831mm"
   height="193.29509mm"
   viewBox="0 0 240.98831 193.29509"
   version="1.1"
   id="svg1"
   xml:space="preserve"
   xmlns:xlink="http://www.w3.org/1999/xlink"
   xmlns="http://www.w3.org/2000/svg"
   xmlns:svg="http://www.w3.org/2000/svg"><defs
     id="defs1"><pattern
       xlink:href="#pattern6-7"
       preserveAspectRatio="xMidYMid"
       id="pattern1"
       patternTransform="translate(190,350)" /><pattern
       patternUnits="userSpaceOnUse"
       width="29"
       height="20"
       patternTransform="translate(190,350)"
       preserveAspectRatio="xMidYMid"
       style="fill:#000000"
       id="pattern6-7"><path
         style="fill:none;stroke:#000000;stroke-width:10;stroke-linecap:butt;stroke-dasharray:none;paint-order:stroke markers fill;stop-color:#000000"
         d="M 0,5 C 19,5 10,15 29,15"
         id="path4-2" /></pattern></defs><g
     id="layer1"
     style="fill:url(#pattern1);fill-opacity:1"
     transform="translate(-26.458333,-8.7332325)"><path
       id="path2"
       style="display:inline;fill:#ffffff"
       d="m 114.76405,8.8422698 c -3.11563,-0.384752 -13.93473,0.3014177 -19.778634,1.2547042 -4.28834,0.699531 -10.223741,2.27583 -10.677901,2.835485 -0.16616,0.204752 -0.986921,0.648354 -1.823661,0.985987 -0.83675,0.337633 -1.521354,0.718095 -1.521354,0.845426 0,0.12733 -0.119064,0.157596 -0.264584,0.0677 -0.14552,-0.08994 -0.264583,-0.01713 -0.264583,0.161231 0,0.178361 -0.07241,0.252084 -0.160714,0.163814 -0.08827,-0.08827 -0.296621,-0.04415 -0.463021,0.09818 -0.16639,0.14235 -1.254813,0.872569 -2.418973,1.62264 -2.8943,1.864791 -6.805843,5.850372 -8.425843,8.585523 -2.60338,4.395435 -3.667512,9.16797 -3.083532,13.827063 0.42783,3.413282 1.321215,6.716303 2.746085,10.150801 2.03764,4.91153 5.270227,9.499307 10.177157,14.444597 4.18547,4.21819 9.804411,8.460707 23.853838,18.010787 15.65998,10.644828 22.22805,15.907511 27.09499,21.708232 4.96225,5.91436 7.17547,10.64555 7.4843,16.00213 0.3692,6.40388 -1.38986,10.0078 -7.06882,14.48335 -2.4114,1.90041 -9.64188,4.63374 -15.47193,5.84874 -6.57586,1.37043 -12.44409,1.52476 -21.03437,0.55242 -7.40256,-0.83789 -13.085264,-2.31681 -20.902084,-5.43946 -6.29874,-2.51621 -9.245608,-4.22252 -13.892175,-8.04344 -3.40586,-2.80068 -8.548775,-8.60457 -10.078455,-11.37398 -0.15961,-0.28895 -0.849499,-1.48943 -1.533239,-2.66754 -1.77699,-3.06178 -3.430269,-7.36314 -4.686019,-12.1915 -1.2218,-4.697815 -1.415377,-5.160436 -2.662887,-6.358786 -1.21494,-1.16707 -2.829558,-1.693485 -5.705078,-1.859835 -3.04291,-0.17604 -4.544635,0.204863 -5.898865,1.496033 -1.39258,1.32774 -1.845365,3.024222 -1.845365,6.914308 0,9.78043 4.069063,18.8071 12.661243,28.08769 6.11476,6.60467 17.89785,13.66444 29.407507,17.61908 9.29326,3.19309 21.126307,5.23234 33.072917,5.69991 10.58688,0.41436 21.46979,-1.61825 29.6137,-5.53093 2.61678,-1.25721 6.05502,-3.29382 7.08897,-4.19922 0.17734,-0.15529 0.71312,-0.57983 1.19062,-0.9431 3.04795,-2.31879 6.54439,-6.92582 7.89255,-10.39988 1.30833,-3.37144 1.69766,-5.90295 1.69757,-11.0324 -7e-5,-4.23166 -0.0649,-4.88021 -0.75345,-7.54011 -1.23994,-4.78987 -3.30292,-9.11325 -6.20789,-13.009028 -1.57587,-2.11335 -6.62396,-7.848185 -6.9975,-7.949385 -0.11328,-0.03069 -1.2578,-1.019726 -2.543,-2.198316 C 127.5282,84.937003 120.99584,80.077449 107.68542,71.051909 95.052496,62.485799 90.807935,59.249542 87.324385,55.526242 c -4.92498,-5.26393 -9.272302,-13.568146 -9.272302,-17.71158 0,-3.802979 2.717047,-6.841106 7.672917,-8.578805 0.94589,-0.331659 1.838855,-0.690135 1.984375,-0.796851 0.26214,-0.192235 1.767848,-0.628197 3.042708,-0.881083 0.3638,-0.07216 0.959117,-0.199303 1.322917,-0.282153 0.3638,-0.08286 1.07818,-0.214922 1.5875,-0.293522 0.50933,-0.07861 1.138004,-0.20417 1.396814,-0.27957 0.53621,-0.156224 0.495249,-0.150784 6.011516,-0.862996 2.25557,-0.291219 6.36323,-0.719592 9.12813,-0.95188 5.56601,-0.467618 6.29356,-0.624935 7.33443,-1.590084 0.82013,-0.760467 1.09503,-1.665191 1.54616,-5.089612 0.37622,-2.855844 0.22902,-4.558818 -0.55087,-6.371704 -0.86559,-2.0121247 -1.79504,-2.7509062 -3.76463,-2.9941322 z m 42.26719,0.1772501 v 5.168e-4 5.168e-4 c -0.94784,0.00133 -1.87261,0.054717 -2.38228,0.1596801 -1.00022,0.205987 -2.82012,1.2688474 -2.64842,1.5466754 0.071,0.114846 -0.0605,0.19255 -0.29249,0.1726 -0.23203,-0.01995 -0.7764,0.396327 -1.20974,0.925524 -1.01773,1.242866 -1.85638,4.748123 -1.62316,6.784082 0.088,0.767758 0.22294,1.332481 0.30024,1.255221 0.0773,-0.07726 0.39646,0.663936 0.70952,1.646928 0.54008,1.695831 3.15474,7.068841 4.41006,9.063013 0.95486,1.516874 2.8199,5.029955 3.72226,7.011458 0.46388,1.018645 1.88767,3.965445 3.16415,6.548437 1.27648,2.582998 2.23384,4.698489 2.12751,4.700489 -0.10633,0.0022 -0.0592,0.09152 0.10439,0.198437 0.40664,0.26576 2.04516,4.718489 3.1533,8.568469 2.55742,8.88516 6.94545,31.095282 8.30337,42.02896 1.07387,8.646543 1.13561,10.069483 1.21491,28.002423 0.0773,17.50139 0.14265,19.74583 0.68316,23.45903 0.77066,5.29434 3.24672,8.46305 7.62848,9.76117 1.75728,0.52064 2.90119,0.53193 4.71805,0.0486 1.85085,-0.49271 3.04834,-1.53062 4.01113,-3.47627 1.58146,-3.19592 1.66142,-6.35796 0.43925,-17.31367 -0.78283,-7.01742 -2.82373,-25.73252 -3.60702,-33.07292 -0.3028,-2.83766 -0.96689,-8.076407 -1.47536,-11.641667 -0.50846,-3.56526 -0.85401,-6.860507 -0.76791,-7.323067 0.086,-0.46256 0.37824,-1.114961 0.64957,-1.450041 l 0.49351,-0.609265 3.13625,0.759644 c 3.89612,0.94395 9.72078,2.777002 9.8397,3.096452 0.0488,0.13106 0.18466,0.178853 0.3018,0.106453 0.3355,-0.20735 6.32065,2.31758 11.25099,4.74648 5.32341,2.62253 10.53151,6.007061 14.55208,9.456791 2.61143,2.24066 5.93785,5.65687 6.99596,7.18457 0.21661,0.31274 0.61428,0.80656 0.88366,1.09761 2.109,2.27861 5.86247,9.37657 7.34374,13.88752 3.89059,11.84818 2.89432,20.80553 -3.36258,30.23433 -1.60755,2.42249 -5.86744,7.05433 -8.95966,9.74153 -1.19604,1.03939 -4.63916,3.52698 -5.67459,4.10001 -0.50666,0.2804 -1.06991,0.64837 -1.25212,0.81752 -0.44711,0.41507 -6.69003,3.58809 -6.69003,3.40031 0,-0.0817 -0.2679,0.0262 -0.59532,0.23926 -0.75374,0.49046 -4.96093,2.04622 -4.96093,1.83451 0,-0.0869 -0.15581,-0.0288 -0.34624,0.12919 -0.51873,0.43051 -7.94167,2.29088 -12.75064,3.19567 -9.08501,1.70934 -8.27434,1.66272 -30.1625,1.74512 -25.61274,0.0965 -29.79432,0.3646 -36.41018,2.33629 -5.99922,1.78792 -9.26584,3.68122 -10.87065,6.30039 -2.55593,4.17145 -1.55278,8.33262 2.6913,11.16366 0.85328,0.56921 4.6206,0.59178 6.63009,0.0387 3.08238,-0.84752 6.85516,-1.72963 9.51673,-2.22518 1.52796,-0.28448 3.84969,-0.75308 5.15938,-1.04077 1.30969,-0.28769 2.8575,-0.59561 3.43958,-0.68471 0.10456,-0.016 0.23928,-0.0372 0.39688,-0.0625 0.54451,-0.21609 1.09909,-0.40614 1.65313,-0.59686 1.71259,-0.5908 3.49853,-0.91513 5.27358,-1.25315 2.64849,-0.49629 5.31681,-0.87502 7.98917,-1.21543 2.12254,-0.24358 4.2475,-0.46547 6.37274,-0.6842 0.13338,-0.20882 0.42777,-0.3683 0.88315,-0.36328 0.95739,0.0106 1.91364,-0.0369 2.86804,-0.10749 1.78141,-0.14428 3.54805,-0.42019 5.32319,-0.62167 2.06645,-0.21006 4.13231,-0.42957 6.19497,-0.67438 2.37959,-0.25583 4.74446,-0.61552 7.10499,-1.00614 3.37257,-0.54422 6.73904,-1.11861 10.08983,-1.78438 4.16504,-0.83478 8.2741,-1.91353 12.361,-3.06493 4.60456,-1.30785 9.15836,-2.79287 13.64671,-4.45554 0.40074,-0.15243 0.79996,-0.3084 1.19786,-0.46768 2.09331,-1.10447 3.95197,-2.15098 5.36608,-3.03909 11.85719,-7.44662 19.18772,-15.96651 22.36918,-25.99789 4.84273,-15.26947 1.07075,-31.5725 -10.71252,-46.30209 -5.63085,-7.038773 -15.53356,-15.775322 -23.68435,-20.895362 -3.35688,-2.10868 -10.68101,-5.865546 -12.64884,-6.487976 -0.80037,-0.25316 -1.61106,-0.606029 -1.80144,-0.784449 -0.4996,-0.46825 -0.11191,-1.763547 0.58188,-1.944067 2.33084,-0.60649 8.79497,-4.615778 14.68592,-9.108488 3.75846,-2.86638 11.28479,-8.983819 11.80135,-9.592179 0.14552,-0.17139 1.39568,-1.245748 2.77813,-2.387968 13.04434,-10.777608 23.72778,-22.541399 27.39006,-30.158883 2.4583,-5.113226 1.69786,-8.372771 -2.38694,-10.230383 -1.06867,-0.485989 -1.78056,-0.599962 -3.70417,-0.593762 -2.27606,0.0073 -2.47673,0.05678 -4.53977,1.126029 -3.02241,1.566487 -4.9434,3.702338 -9.79682,10.890808 -2.20993,3.273172 -4.92837,7.082152 -6.04097,8.4646 -11.48085,14.265358 -21.32589,22.550272 -34.39119,28.941902 -4.37564,2.1406 -7.20992,3.257597 -12.17083,4.796607 -4.96414,1.54002 -6.24304,1.698794 -7.87549,0.976684 -1.47316,-0.65165 -1.96586,-1.50706 -2.92643,-5.08186 -2.35884,-8.77852 -5.05026,-18.431855 -5.64359,-20.240625 -0.88976,-2.712449 -6.3869,-16.814002 -6.70295,-17.194816 -0.24418,-0.294213 -2.12752,-4.549534 -2.22622,-5.030184 -0.0299,-0.145521 -0.25831,-0.649961 -0.50798,-1.121379 -0.24967,-0.471418 -0.44938,-0.919478 -0.44338,-0.995288 0.006,-0.07581 -0.1727,-0.492528 -0.39688,-0.926041 -0.22418,-0.433513 -0.42054,-0.878421 -0.43614,-0.989087 -0.11895,-0.844993 -1.48337,-3.716226 -2.38694,-5.022433 -0.48102,-0.695362 -0.87812,-1.324054 -0.88212,-1.396814 -0.0359,-0.655283 -1.55541,-1.5674588 -3.03392,-1.8215938 -0.60162,-0.1033875 -1.57242,-0.1542933 -2.52026,-0.1529623 z M 157.1625,140.90553 c -5.63608,0 -9.3093,5.82664 -6.7846,10.76161 0.9124,1.78344 2.50505,3.23586 4.18424,3.81579 3.74679,1.29401 7.59183,-0.26484 9.38599,-3.80545 2.51443,-4.96197 -1.14551,-10.77195 -6.78563,-10.77195 z" /></g></svg>
